<?xml version="1.0" standalone="no"?><!DOCTYPE svg PUBLIC "-//W3C//DTD SVG 1.1//EN" "http://www.w3.org/Graphics/SVG/1.1/DTD/svg11.dtd"><svg t="1593243889403" class="icon" viewBox="0 0 1024 1024" version="1.1" xmlns="http://www.w3.org/2000/svg" p-id="1811" data-spm-anchor-id="a313x.7781069.0.i0" xmlns:xlink="http://www.w3.org/1999/xlink" width="200" height="200"><defs><style type="text/css"></style></defs><path d="M827.05 1023.59c18.78 0 30.04-1.88 33.1-2.35 7.98-1.41 46.24-8.46 65.95-26.8 7.75-6.58 54.45-47.02 84.73-97.09 13.38-22.1 23.24-59.95-4.93-116.36-19.25-38.55-47.65-69.11-58.91-80.4-69.94-70.05-147.87-95.68-194.1-63.94-12.91 8.93-45.53 43.25-64.31 63.47-3.29 3.05-12.44 7.05-17.37 7.28-6.34-0.7-80.97-10.34-213.59-141.28C326.66 432.83 317.03 358.31 316.56 352.2c0.47-4.7 4.46-14.34 7.51-17.63 59.85-59.95 59.85-59.95 61.26-61.59l0.46-0.47c44.13-55.48-27.46-153.97-60.32-193.94-33.33-40.43-63.13-65.82-116.41-75.93-38.49-7.28-88.72 10.11-134.26 46.55C31.16 84.21 5.11 126.52 3 165.78c-4.46 28.68-25.35 248.24 283.99 558.08l3.76 3.76c0.94 0.94 2.11 1.88 3.05 3.06 0.94 0.94 1.88 2.11 3.05 3.05l3.52 3.52c256.77 257.19 451.34 286.34 526.68 286.34z m20.89-67c-3.29 0.47-53.04 7.52-136.37-19.51-80.27-26.09-208.65-90.03-364.74-246.36l-2.81-2.82c-1.17-1.41-2.58-2.59-3.99-4l-3.75-3.76c-0.94-0.94-2.12-1.88-3.05-3.05C174.56 518.17 110.96 387.7 85.62 306.13c-25.82-82.98-17.84-130.23-17.6-130.7l0.47-2.59v-2.58c0.7-19.75 19.24-47.02 47.4-69.58 32.16-25.86 65.02-36.2 80.98-33.39 34.5 6.58 51.87 21.87 77.92 53.13 46.24 56.19 61.26 99.67 59.15 111.19l-56.33 56.42c-15.25 15.28-26.52 42.08-26.99 63.94 0 10.11 3.52 101.32 160.07 260.7l0.47 0.47c157.25 155.15 248.32 160.32 259.82 160.32h0.47c21.83-0.24 48.59-11.52 63.84-27.03l0.94-0.94c20.89-22.57 47.41-49.6 53.98-54.54 9.62-6.35 54.68 0.71 110.31 56.42 7.04 7.05 31.45 32.67 46.71 63.23 6.57 13.4 16.43 37.84 7.51 52.66-26.52 43.73-70.88 80.87-71.35 81.1l-1.88 1.65c-5.16 3.52-21.83 8.93-31.69 10.11l-1.88 0.47zM670.98 707.64s-0.24 0 0 0c-0.24 0-0.24 0 0 0zM316.56 352.68z m0 0" p-id="1812" fill="#1afa29"></path></svg>