<?xml version="1.0" standalone="no"?><!DOCTYPE svg PUBLIC "-//W3C//DTD SVG 1.1//EN" "http://www.w3.org/Graphics/SVG/1.1/DTD/svg11.dtd"><svg t="1593243941452" class="icon" viewBox="0 0 1024 1024" version="1.1" xmlns="http://www.w3.org/2000/svg" p-id="1981" xmlns:xlink="http://www.w3.org/1999/xlink" width="200" height="200"><defs><style type="text/css"></style></defs><path d="M230.370556 654.409404c3.709203 3.709203 5.498819 8.438187 5.498818 14.066978 0 5.628791-1.789616 10.477749-5.498818 14.066978-3.709203 3.709203-8.438187 5.498819-14.066978 5.498818H19.555848c-5.618793 0-10.477749-1.789616-14.05698-5.498818-3.709203-3.709203-5.498819-8.438187-5.498819-14.066978 0-5.618793 1.789616-10.477749 5.498819-14.066978 3.709203-3.709203 8.438187-5.498819 14.05698-5.498818h196.74773c5.628791 0 10.487747 1.789616 14.066978 5.498818z m403.213372-352.074359l-146.888442 10.997637-167.863936-168.4938c-11.507528-11.507528-25.434536-17.126321-41.801019-17.12632-15.976568 0-29.913573 5.488821-41.801019 16.486458l-90.380582 89.74072c-11.507528 11.507528-17.126321 25.184589-17.126321 41.291128 0 16.366484 5.618793 30.433462 17.126321 41.80102l168.363828 168.373826-11.12761 147.518306c-14.316924-8.688133-25.824452-17.126321-34.382613-25.814454L61.366865 400.52395c-34.392611-35.292418-51.518931-77.093437-51.518931-125.413056 0-49.089453 17.516237-90.770499 52.158794-124.773193l90.380582-89.74072c34.012693-34.002695 75.68374-51.009041 124.773193-51.009041 49.469372 0 91.410361 17.516237 125.413056 52.158794l205.185917 205.945754c8.558161 8.818105 17.256293 20.325633 25.824452 34.642557zM269.612125 780.972213L112.375906 938.478374c-4.479038 3.709203-9.208022 5.498819-14.066978 5.498818-4.858956 0-9.717912-1.789616-14.066977-5.498818-3.709203-4.089121-5.498819-8.818105-5.498819-14.066978 0-5.238874 1.789616-10.097831 5.498819-14.066978l157.246216-157.376189c4.089121-3.709203 8.818105-5.488821 14.066978-5.48882 5.238874 0 10.097831 1.789616 14.05698 5.48882 3.709203 4.099119 5.498819 8.818105 5.498819 14.066978 0.129972 5.1189-1.659643 9.977856-5.498819 13.937006z m103.947667 25.184589v196.74773c0 5.618793-1.789616 10.477749-5.498818 14.05698-3.709203 3.709203-8.438187 5.498819-14.066978 5.498819-5.628791 0-10.477749-1.789616-14.066978-5.498819-3.709203-3.709203-5.498819-8.428189-5.498818-14.05698V806.156802c0-5.618793 1.789616-10.477749 5.498818-14.066978 3.709203-3.709203 8.438187-5.498819 14.066978-5.498818 5.618793 0 10.477749 1.789616 14.066978 5.498818 3.699205 3.719201 5.498819 8.448185 5.498818 14.066978z m639.202672-58.92734c0 49.089453-17.516237 90.760501-52.158794 124.773194l-90.39058 89.740719c-34.002695 34.002695-75.68374 51.009041-124.773194 51.009041-49.599344 0-91.400363-17.516237-125.413055-52.158794l-205.185918-205.955751c-8.698131-8.688133-17.136318-20.065689-25.824451-34.382613l146.888442-11.117612 167.723965 168.363828c11.127609 11.117611 24.934643 16.61643 41.801019 16.876375 16.876374 0.259944 30.81338-5.108902 41.80102-16.236512l90.380582-89.74072c11.507528-11.507528 17.136318-25.184589 17.136318-41.291129 0-16.366484-5.628791-30.423464-17.136318-41.801019L709.137696 536.414755l11.117611-146.888442c14.316924 8.688133 25.824452 17.126321 34.382613 25.824451l206.465642 206.465643c34.522583 35.412392 51.658901 77.083439 51.658902 125.413055zM688.1722 19.555799v196.74773c0 5.628791-1.789616 10.487747-5.498819 14.066977-3.709203 3.709203-8.428189 5.498819-14.066977 5.498819-5.618793 0-10.477749-1.789616-14.05698-5.498819-3.709203-3.709203-5.498819-8.438187-5.498819-14.066977V19.555799c0-5.618793 1.789616-10.477749 5.498819-14.05698 3.709203-3.709203 8.428189-5.498819 14.05698-5.498819 5.628791 0 10.487747 1.789616 14.066977 5.498819 3.709203 3.709203 5.498819 8.308215 5.498819 14.05698z m250.306223 92.81006L780.98226 269.742048c-4.46904 3.709203-9.198024 5.488821-14.05698 5.48882-4.858956 0-9.717912-1.789616-14.066977-5.48882-3.709203-4.099119-5.498819-8.818105-5.498819-14.066978 0-5.238874 1.789616-10.097831 5.498819-14.066978l157.236218-157.366191c4.089121-3.709203 8.818105-5.498819 14.066978-5.498818s10.097831 1.789616 14.066978 5.498818c3.709203 4.089121 5.498819 8.818105 5.498819 14.066978 0.119974 5.238874-1.669641 9.967858-5.248873 14.05698z m78.623109 227.431138c3.709203 3.709203 5.498819 8.438187 5.498818 14.066978 0 5.628791-1.789616 10.477749-5.498818 14.056979-3.709203 3.709203-8.438187 5.498819-14.066978 5.498819H806.16685c-5.618793 0-10.477749-1.789616-14.066978-5.498819-3.709203-3.699205-5.498819-8.428189-5.498819-14.056979 0-5.618793 1.789616-10.487747 5.498819-14.066978 3.709203-3.709203 8.438187-5.498819 14.066978-5.498819h196.747729c5.748765 0 10.477749 1.789616 14.186953 5.498819z m0 0" p-id="1982" fill="#1296db"></path></svg>